{
  "accessors": [
    {
      "bufferView": 2,
      "componentType": 5126,
      "count": 24653,
      "max": [
        0.08033198118209839,
        0.21989880502223969,
        0.18481090664863586
      ],
      "min": [
        -0.11056400090456009,
        -0.17113129794597626,
        -0.1689589023590088
      ],
      "type": "VEC3"
    },
    {
      "bufferView": 2,
      "byteOffset": 295836,
      "componentType": 5126,
      "count": 24653,
      "max": [
        0.9999967217445374,
        0.9980666041374207,
        0.9994820952415466
      ],
      "min": [
        -0.9999576210975647,
        -0.9997243881225586,
        -0.9997292757034302
      ],
      "type": "VEC3"
    },
    {
      "bufferView": 1,
      "componentType": 5126,
      "count": 24653,
      "max": [
        0.5734859704971313,
        0.9992679953575134
      ],
      "min": [
        0.0,
        0.0
      ],
      "type": "VEC2"
    },
    {
      "bufferView": 0,
      "componentType": 5125,
      "count": 89202,
      "type": "SCALAR"
    }
  ],
  "asset": {
    "extras": {
      "author": "Innovation Studio (https://sketchfab.com/cmp_innovation_studio)",
      "license": "CC-BY-4.0 (http://creativecommons.org/licenses/by/4.0/)",
      "source": "https://sketchfab.com/3d-models/black-footed-penguin-b10454cd501d4d7187842f471de153b7",
      "title": "Black-footed Penguin"
    },
    "generator": "Sketchfab-12.67.0",
    "version": "2.0"
  },
  "bufferViews": [
    {
      "buffer": 0,
      "byteLength": 356808,
      "name": "floatBufferViews",
      "target": 34963
    },
    {
      "buffer": 0,
      "byteLength": 197224,
      "byteOffset": 356808,
      "byteStride": 8,
      "name": "floatBufferViews",
      "target": 34962
    },
    {
      "buffer": 0,
      "byteLength": 591672,
      "byteOffset": 554032,
      "byteStride": 12,
      "name": "floatBufferViews",
      "target": 34962
    }
  ],
  "buffers": [
    {
      "byteLength": 1145704,
      "uri": "scene.bin"
    }
  ],
  "images": [
    {
      "uri": "textures/material_0_001_baseColor.jpeg"
    }
  ],
  "materials": [
    {
      "doubleSided": true,
      "name": "material_0_001",
      "pbrMetallicRoughness": {
        "baseColorTexture": {
          "index": 0
        },
        "metallicFactor": 0.0,
        "roughnessFactor": 0.6
      }
    }
  ],
  "meshes": [
    {
      "name": "material_0_001-material",
      "primitives": [
        {
          "attributes": {
            "NORMAL": 1,
            "POSITION": 0,
            "TEXCOORD_0": 2
          },
          "indices": 3,
          "material": 0,
          "mode": 4
        }
      ]
    }
  ],
  "nodes": [
    {
      "children": [
        1
      ],
      "matrix": [
        1.0,
        0.0,
        0.0,
        0.0,
        0.0,
        2.220446049250313e-16,
        -1.0,
        0.0,
        0.0,
        1.0,
        2.220446049250313e-16,
        0.0,
        0.0,
        0.0,
        0.0,
        1.0
      ],
      "name": "Sketchfab_model"
    },
    {
      "children": [
        2
      ],
      "name": "Collada visual scene group"
    },
    {
      "children": [
        3
      ],
      "matrix": [
        0.9325657,
        0.3608866,
        0.009051466,
        0.0,
        -0.1920605,
        0.4747604,
        0.8589035,
        0.0,
        0.3056695,
        -0.8027225,
        0.5120574,
        0.0,
        0.01789017,
        0.0,
        -0.03913169,
        1.0
      ],
      "name": "penguin_001"
    },
    {
      "mesh": 0,
      "name": "material_0_001-material"
    }
  ],
  "samplers": [
    {
      "magFilter": 9729,
      "minFilter": 9987,
      "wrapS": 10497,
      "wrapT": 10497
    }
  ],
  "scene": 0,
  "scenes": [
    {
      "name": "Sketchfab_Scene",
      "nodes": [
        0
      ]
    }
  ],
  "textures": [
    {
      "sampler": 0,
      "source": 0
    }
  ]
}
